<?xml version="1.0" encoding="utf-8"?><svg viewBox="0 0 303 463" xmlns="http://www.w3.org/2000/svg" xmlns:xlink="http://www.w3.org/1999/xlink"><style>:root>svg{display:none}:root>svg:target{display:block}</style><svg fill="none" viewBox="0 0 303 463" id="solutions-effect3" xmlns="http://www.w3.org/2000/svg"><circle cx="133.09" cy="304.737" r="88.876" transform="rotate(67.538 133.09 304.737)" fill="url(#aa)" style="mix-blend-mode:multiply" opacity=".46"/><ellipse cx="166.527" cy="177.057" rx="104.22" ry="104.024" transform="rotate(67.538 166.527 177.057)" fill="url(#ab)" style="mix-blend-mode:multiply" opacity=".78"/><ellipse cx="80.644" cy="355.367" rx="82.209" ry="82.494" transform="rotate(67.538 80.644 355.367)" fill="url(#ac)" style="mix-blend-mode:hard-light" opacity=".6"/><circle cx="35.08" cy="221.956" r="169.255" transform="rotate(67.538 35.08 221.956)" fill="url(#ad)" style="mix-blend-mode:multiply" opacity=".6"/><circle cx="59.408" cy="261.285" r="79.934" transform="rotate(67.538 59.408 261.285)" fill="url(#ae)" style="mix-blend-mode:hard-light" opacity=".6"/><defs><radialGradient id="aa" cx="0" cy="0" r="1" gradientUnits="userSpaceOnUse" gradientTransform="rotate(90 -85.824 218.914) scale(88.8761)"><stop stop-color="#CA1646"/><stop offset="1" stop-color="#FE9D2B" stop-opacity="0"/></radialGradient><radialGradient id="ab" cx="0" cy="0" r="1" gradientUnits="userSpaceOnUse" gradientTransform="matrix(0 104.024 -104.22 0 166.527 177.057)"><stop stop-color="#CA1646"/><stop offset="1" stop-color="#FE9D2B" stop-opacity="0"/></radialGradient><radialGradient id="ac" cx="0" cy="0" r="1" gradientUnits="userSpaceOnUse" gradientTransform="matrix(0 82.4939 -82.2094 0 80.644 355.367)"><stop stop-color="#fff"/><stop offset="1" stop-color="#FE9D2B" stop-opacity="0"/></radialGradient><radialGradient id="ad" cx="0" cy="0" r="1" gradientUnits="userSpaceOnUse" gradientTransform="rotate(90 -93.438 128.518) scale(169.255)"><stop stop-color="#CA1646"/><stop offset="1" stop-color="#FE9D2B" stop-opacity="0"/></radialGradient><radialGradient id="ae" cx="0" cy="0" r="1" gradientUnits="userSpaceOnUse" gradientTransform="rotate(90 -100.938 160.347) scale(79.9337)"><stop stop-color="#fff"/><stop offset="1" stop-color="#FE9D2B" stop-opacity="0"/></radialGradient></defs></svg><svg fill="none" viewBox="0 0 23 20" id="twitter" xmlns="http://www.w3.org/2000/svg"><path d="M22.991 1.95a1 1 0 0 0-1.51-.86 7.48 7.48 0 0 1-1.873.794A5.152 5.152 0 0 0 16.233.642a5.233 5.233 0 0 0-5.223 5.063 11.032 11.032 0 0 1-6.814-3.924 1.011 1.011 0 0 0-.857-.365.998.998 0 0 0-.785.5 5.275 5.275 0 0 0-.242 4.769l-.002.002a1.041 1.041 0 0 0-.496.888c-.001.147.007.294.027.44a5.185 5.185 0 0 0 1.568 3.312.999.999 0 0 0-.066.77 5.204 5.204 0 0 0 2.362 2.921 7.465 7.465 0 0 1-3.59.449A1 1 0 0 0 1.45 17.3a12.942 12.942 0 0 0 7.01 2.061 12.788 12.788 0 0 0 12.465-9.363c.353-1.183.533-2.412.535-3.646l-.001-.2a5.77 5.77 0 0 0 1.532-4.202Zm-3.306 3.212a.995.995 0 0 0-.234.702c.01.165.009.331.009.488a10.826 10.826 0 0 1-.454 3.08 10.685 10.685 0 0 1-10.546 7.93c-.86 0-1.715-.101-2.55-.301a9.48 9.48 0 0 0 2.942-1.564 1.001 1.001 0 0 0-.602-1.786 3.208 3.208 0 0 1-2.214-.935c.15-.028.298-.063.445-.105a1 1 0 0 0-.08-1.944 3.197 3.197 0 0 1-2.25-1.725c.181.025.363.04.545.046a1.021 1.021 0 0 0 .984-.696 1 1 0 0 0-.4-1.137A3.196 3.196 0 0 1 3.86 4.344a13.014 13.014 0 0 0 8.21 3.48 1.02 1.02 0 0 0 .817-.36 1 1 0 0 0 .206-.867 3.164 3.164 0 0 1-.087-.729 3.23 3.23 0 0 1 4.506-2.962c.403.176.766.433 1.065.756a.993.993 0 0 0 .921.298 9.27 9.27 0 0 0 1.212-.322 6.679 6.679 0 0 1-1.026 1.524Z" fill="#F5EFDB"/></svg></svg>